# xmcd
#
# Track frame offsets: 
#        150
#        18167
#        43537
#
# Disc length: 717 seconds
#
# Revision: 0
# Processed by: cddbd v1.5.2PL0 Copyright (c) Steve Scherf et al.
# Submitted via: ExactAudioCopy v0.99pb4
#
DISCID=1702cb03
DTITLE=Larry Schuba and Western Union - Lach mal wieder
DYEAR=1994
DGENRE=Country
TTITLE0=Lach mal wieder
TTITLE1=Tausend Feuer
TTITLE2=Lepp's Pinball
EXTD=
EXTT0=
EXTT1=
EXTT2=
PLAYORDER=
